<svg width="375" height="812" viewBox="0 0 375 812" fill="none" xmlns="http://www.w3.org/2000/svg">
<g clip-path="url(#clip0_61385_181)">
<rect width="375" height="812" fill="#202024"/>
<circle cx="278" cy="99" r="300" transform="rotate(-180 278 99)" fill="url(#paint0_radial_61385_181)"/>
<circle cx="98" cy="99" r="300" transform="rotate(-180 98 99)" fill="url(#paint1_radial_61385_181)"/>
<mask id="mask0_61385_181" style="mask-type:alpha" maskUnits="userSpaceOnUse" x="0" y="0" width="375" height="810">
<rect width="375" height="810" fill="#202024"/>
</mask>
<g mask="url(#mask0_61385_181)">
<path d="M375 167.687V-309.934L187.478 -417.455L-0.0446777 -309.934V167.687L187.478 275.215L375 167.687Z" fill="url(#paint2_linear_61385_181)"/>
<g style="mix-blend-mode:luminosity" opacity="0.4">
<path d="M1.83663 61.2419V168.382L95.1275 221.957L188.418 168.382V61.2419L95.1275 7.66684L1.83663 61.2419Z" fill="url(#paint3_linear_61385_181)"/>
<path d="M1.83663 -45.9033V61.2365L95.1275 114.812L188.418 61.2365V-45.9033L95.1275 -99.4783L1.83663 -45.9033Z" fill="url(#paint4_linear_61385_181)"/>
<path d="M281.709 -99.4506V7.68922L188.418 61.2643L95.1274 7.68922V-99.4506L188.418 -153.026L281.709 -99.4506Z" fill="url(#paint5_linear_61385_181)"/>
<path d="M188.418 168.381V61.2415L281.709 7.66647L375 61.2415V168.381L281.709 221.956L188.418 168.381Z" fill="url(#paint6_linear_61385_181)"/>
<path d="M375 -45.9033V61.2365L281.709 114.812L188.418 61.2365V-45.9033L281.709 -99.4783L375 -45.9033Z" fill="url(#paint7_linear_61385_181)"/>
<path d="M281.709 221.979V114.839L188.418 61.2643L95.1274 114.839L95.1274 221.979L188.418 275.554L281.709 221.979Z" fill="url(#paint8_linear_61385_181)"/>
</g>
</g>
</g>
<defs>
<radialGradient id="paint0_radial_61385_181" cx="0" cy="0" r="1" gradientUnits="userSpaceOnUse" gradientTransform="translate(278 99) rotate(90) scale(300)">
<stop stop-color="#FFC323"/>
<stop offset="1" stop-color="#121214" stop-opacity="0"/>
</radialGradient>
<radialGradient id="paint1_radial_61385_181" cx="0" cy="0" r="1" gradientUnits="userSpaceOnUse" gradientTransform="translate(98 99) rotate(90) scale(300)">
<stop stop-color="#FF3D6E"/>
<stop offset="1" stop-color="#121214" stop-opacity="0"/>
</radialGradient>
<linearGradient id="paint2_linear_61385_181" x1="-67.9497" y1="58.7933" x2="435.851" y2="232.55" gradientUnits="userSpaceOnUse">
<stop stop-color="#FF008E"/>
<stop offset="1" stop-color="#FFCD1E"/>
</linearGradient>
<linearGradient id="paint3_linear_61385_181" x1="95.1275" y1="217.029" x2="2.57896" y2="58.7025" gradientUnits="userSpaceOnUse">
<stop stop-color="#8257E5"/>
<stop offset="1" stop-color="#FF008E" stop-opacity="0"/>
</linearGradient>
<linearGradient id="paint4_linear_61385_181" x1="95.1275" y1="109.884" x2="2.57894" y2="-48.4426" gradientUnits="userSpaceOnUse">
<stop stop-color="#8257E5"/>
<stop offset="1" stop-color="#FF008E" stop-opacity="0"/>
</linearGradient>
<linearGradient id="paint5_linear_61385_181" x1="95.1275" y1="-105.472" x2="281.176" y2="7.07514" gradientUnits="userSpaceOnUse">
<stop stop-color="#FF008E" stop-opacity="0"/>
<stop offset="1" stop-color="#FFCD1E"/>
</linearGradient>
<linearGradient id="paint6_linear_61385_181" x1="375" y1="174.403" x2="188.952" y2="61.8556" gradientUnits="userSpaceOnUse">
<stop stop-color="#FF008E" stop-opacity="0"/>
<stop offset="1" stop-color="#FFCD1E"/>
</linearGradient>
<linearGradient id="paint7_linear_61385_181" x1="281.709" y1="109.884" x2="374.258" y2="-48.4426" gradientUnits="userSpaceOnUse">
<stop stop-color="#8257E5"/>
<stop offset="1" stop-color="#FF008E" stop-opacity="0"/>
</linearGradient>
<linearGradient id="paint8_linear_61385_181" x1="188.418" y1="66.1917" x2="280.967" y2="224.518" gradientUnits="userSpaceOnUse">
<stop stop-color="#8257E5"/>
<stop offset="1" stop-color="#FF008E" stop-opacity="0"/>
</linearGradient>
<clipPath id="clip0_61385_181">
<rect width="375" height="812" fill="white"/>
</clipPath>
</defs>
</svg>
